<?xml version="1.0" standalone="no"?>
<!DOCTYPE svg PUBLIC "-//W3C//DTD SVG 20010904//EN"
 "http://www.w3.org/TR/2001/REC-SVG-20010904/DTD/svg10.dtd">
<svg version="1.0" xmlns="http://www.w3.org/2000/svg"
 width="260.000000pt" height="260.000000pt" viewBox="0 0 260.000000 260.000000"
 preserveAspectRatio="xMidYMid meet">
<metadata>
Created by potrace 1.11, written by Peter Selinger 2001-2013
</metadata>
<g transform="translate(0.000000,260.000000) scale(0.100000,-0.100000)"
fill="#000000" stroke="none">
<path d="M179 2507 c-29 -16 -54 -40 -74 -72 l-30 -48 0 -1077 0 -1077 30 -48
c20 -32 45 -56 74 -72 l44 -23 1072 0 1072 0 44 23 c24 13 58 43 74 66 l30 43
0 1088 0 1088 -30 44 c-18 25 -49 52 -75 66 l-44 22 -1072 0 -1071 0 -44 -23z
m1326 -551 c145 -66 195 -176 145 -321 -38 -110 -165 -321 -347 -575 l-46 -65
75 80 c186 199 348 381 348 392 0 20 37 35 58 24 27 -15 91 -88 102 -117 20
-52 10 -89 -69 -254 -44 -91 -89 -190 -100 -220 l-20 -55 73 77 c139 148 261
345 306 496 40 133 11 316 -54 342 -11 4 -36 14 -53 20 -24 9 -33 19 -33 36 0
53 91 56 182 7 113 -61 189 -186 192 -313 1 -54 -4 -76 -31 -132 -63 -134
-199 -304 -413 -517 -183 -181 -246 -234 -273 -225 -65 19 -103 70 -113 153
-8 68 16 159 81 298 l45 96 -62 -68 c-143 -156 -346 -400 -374 -450 -8 -14
-24 -21 -52 -23 -35 -3 -46 2 -81 34 -108 97 -71 192 239 614 256 347 316 465
272 536 -29 46 -77 64 -169 64 -340 0 -788 -365 -810 -661 -7 -86 11 -123 74
-151 82 -36 152 -22 289 58 39 23 43 23 58 9 42 -42 -9 -118 -101 -149 -191
-66 -401 12 -484 179 -20 43 -24 64 -24 145 0 87 3 100 32 157 116 221 412
418 733 487 110 23 125 24 240 22 90 -2 113 -6 165 -30z"/>
</g>
</svg>
